<svg width="128" height="128" viewBox="0 0 128 128" fill="none" xmlns="http://www.w3.org/2000/svg">
  <defs>
    <linearGradient id="gradient" x1="0%" y1="0%" x2="100%" y2="100%">
      <stop offset="0%" style="stop-color:#667eea;stop-opacity:1" />
      <stop offset="100%" style="stop-color:#764ba2;stop-opacity:1" />
    </linearGradient>
  </defs>
  
  <!-- Background Circle -->
  <circle cx="64" cy="64" r="60" fill="url(#gradient)" />
  
  <!-- Theatrical Masks 🎭 -->
  <g transform="translate(64, 64)">
    <!-- Left Mask (Sad) -->
    <g transform="translate(-20, 0)">
      <circle cx="0" cy="0" r="15" fill="white" opacity="0.95" />
      <!-- Sad Eyes -->
      <ellipse cx="-5" cy="-3" rx="3" ry="4" fill="#667eea" />
      <ellipse cx="5" cy="-3" rx="3" ry="4" fill="#667eea" />
      <!-- Sad Mouth -->
      <path d="M -5 5 Q 0 2, 5 5" stroke="#764ba2" stroke-width="2.5" fill="none" stroke-linecap="round" />
    </g>
    
    <!-- Right Mask (Happy) -->
    <g transform="translate(20, 0)">
      <circle cx="0" cy="0" r="15" fill="white" opacity="0.95" />
      <!-- Happy Eyes -->
      <ellipse cx="-5" cy="-3" rx="3" ry="4" fill="#667eea" />
      <ellipse cx="5" cy="-3" rx="3" ry="4" fill="#667eea" />
      <!-- Happy Mouth -->
      <path d="M -5 5 Q 0 9, 5 5" stroke="#764ba2" stroke-width="2.5" fill="none" stroke-linecap="round" />
    </g>
    
    <!-- Connector Line -->
    <line x1="-10" y1="0" x2="10" y2="0" stroke="white" stroke-width="3" stroke-linecap="round" />
  </g>
  
  <!-- Sparkles ✨ -->
  <circle cx="20" cy="20" r="3" fill="white" opacity="0.8">
    <animate attributeName="opacity" values="0.4;1;0.4" dur="2s" repeatCount="indefinite" />
  </circle>
  <circle cx="108" cy="35" r="2" fill="white" opacity="0.6">
    <animate attributeName="opacity" values="0.3;0.9;0.3" dur="1.5s" repeatCount="indefinite" />
  </circle>
  <circle cx="35" cy="108" r="2.5" fill="white" opacity="0.7">
    <animate attributeName="opacity" values="0.2;1;0.2" dur="1.8s" repeatCount="indefinite" />
  </circle>
  <circle cx="95" cy="95" r="3" fill="white" opacity="0.9">
    <animate attributeName="opacity" values="0.5;1;0.5" dur="2.2s" repeatCount="indefinite" />
  </circle>
</svg>
